# xmcd
#
# Track frame offsets: 
#        150
#        16584
#        31088
#        46288
#        61428
#        78792
#        90412
#        105653
#        119343
#        134631
#        144065
#        153071
#        173211
#
# Disc length: 2532 seconds
#
# Revision: 0
# Processed by: cddbd v1.5.2PL0 Copyright (c) Steve Scherf et al.
# Submitted via: ExactAudioCopy v1.0b3
#
DISCID=9109e20d
DTITLE=Various Artist - The Music Of Nashville Season 2 Volume 1
DYEAR=2013
DGENRE=Country
TTITLE0=Chris Carmack - What If I Was Willing
TTITLE1=Sam Palladio - Can't Get It Right
TTITLE2=Lennon Stella and Maisy Stella - A Life That's Good
TTITLE3=Connie Britton and Will Chase - Ball And Chain
TTITLE4=Clare Bowen and Charles Esten - This Town
TTITLE5=Hayden Panettiere - Trouble Is
TTITLE6=Charles Esten - Playin' Tricks
TTITLE7=Clare Bowen and Sam Palladio - Why Can't I Say Goodnight
TTITLE8=Aubrey Peeples - Tell Me
TTITLE9=Chaley Rose - Wayfaring Stranger (A Cappella)
TTITLE10=Lennon Stella and Maisy Stella - Share With You
TTITLE11=Jonathan Jackson - How You Learn To Live Alone
TTITLE12=Hayden Panettiere and Chris Carmack - Can't Say No To You
EXTD=
EXTT0=
EXTT1=
EXTT2=
EXTT3=
EXTT4=
EXTT5=
EXTT6=
EXTT7=
EXTT8=
EXTT9=
EXTT10=
EXTT11=
EXTT12=
PLAYORDER=
